<svg width="2560" height="424" viewBox="0 0 2560 424" fill="none" xmlns="http://www.w3.org/2000/svg">
<g clip-path="url(#clip0_458_49029)">
<rect width="2560" height="424" fill="#F8F8F8"/>
<mask id="mask0_458_49029" style="mask-type:alpha" maskUnits="userSpaceOnUse" x="-52" y="-109" width="2295" height="835">
<path d="M987.612 474.867C1152.02 188.133 326.419 6.14444 -47 -103C-29.1575 172 34.9737 722 148.758 722C290.989 722 847.308 719.565 987.612 474.867Z" stroke="black" stroke-width="8"/>
<path d="M1156.13 474.867C1347.31 188.133 387.241 6.14444 -47 -103C-26.2513 172 48.3255 722 180.643 722C346.04 722 992.972 719.565 1156.13 474.867Z" stroke="black" stroke-width="8"/>
<path d="M1363.83 474.867C1588.03 188.133 462.207 6.14444 -47 -103C-22.6693 172 64.7823 722 219.943 722C413.894 722 1172.51 719.565 1363.83 474.867Z" stroke="black" stroke-width="8"/>
<path d="M1611.71 474.867C1875.29 188.133 551.672 6.14444 -47 -103C-18.3945 172 84.4219 722 266.843 722C494.87 722 1386.77 719.565 1611.71 474.867Z" stroke="black" stroke-width="8"/>
<path d="M1894.86 474.867C2203.43 188.133 653.867 6.14444 -47 -103C-13.5115 172 106.856 722 320.417 722C587.369 722 1631.52 719.565 1894.86 474.867Z" stroke="black" stroke-width="8"/>
<path d="M2192.76 474.867C2548.2 188.133 763.306 6.14444 -44 -103C-5.42565 172 133.222 722 379.216 722C686.708 722 1889.43 719.565 2192.76 474.867Z" stroke="black" stroke-width="8"/>
</mask>
<g mask="url(#mask0_458_49029)">
<g filter="url(#filter0_f_458_49029)">
<circle cx="600" cy="600" r="600" transform="matrix(-1 0 0 1 909 -437)" fill="url(#paint0_linear_458_49029)"/>
</g>
<g filter="url(#filter1_f_458_49029)">
<circle cx="600" cy="600" r="600" transform="matrix(-1 0 0 1 2545 -344)" fill="url(#paint1_linear_458_49029)"/>
</g>
<g filter="url(#filter2_f_458_49029)">
<circle cx="600" cy="600" r="600" transform="matrix(-1 0 0 1 1602 -388)" fill="url(#paint2_linear_458_49029)"/>
</g>
<g filter="url(#filter3_f_458_49029)">
<circle cx="172" cy="384" r="250" fill="#F2FAF9"/>
</g>
<g filter="url(#filter4_f_458_49029)">
<circle cx="865" cy="379" r="228" fill="#A8F8E7"/>
</g>
<g filter="url(#filter5_f_458_49029)">
<circle cx="1428" cy="-2" r="163" fill="#2A8AFF"/>
</g>
<g filter="url(#filter6_f_458_49029)">
<circle cx="1865.5" cy="481.5" r="162.5" fill="#2A8AFF"/>
</g>
</g>
</g>
<defs>
<filter id="filter0_f_458_49029" x="-341" y="-487" width="1300" height="1300" filterUnits="userSpaceOnUse" color-interpolation-filters="sRGB">
<feFlood flood-opacity="0" result="BackgroundImageFix"/>
<feBlend mode="normal" in="SourceGraphic" in2="BackgroundImageFix" result="shape"/>
<feGaussianBlur stdDeviation="25" result="effect1_foregroundBlur_458_49029"/>
</filter>
<filter id="filter1_f_458_49029" x="1295" y="-394" width="1300" height="1300" filterUnits="userSpaceOnUse" color-interpolation-filters="sRGB">
<feFlood flood-opacity="0" result="BackgroundImageFix"/>
<feBlend mode="normal" in="SourceGraphic" in2="BackgroundImageFix" result="shape"/>
<feGaussianBlur stdDeviation="25" result="effect1_foregroundBlur_458_49029"/>
</filter>
<filter id="filter2_f_458_49029" x="352" y="-438" width="1300" height="1300" filterUnits="userSpaceOnUse" color-interpolation-filters="sRGB">
<feFlood flood-opacity="0" result="BackgroundImageFix"/>
<feBlend mode="normal" in="SourceGraphic" in2="BackgroundImageFix" result="shape"/>
<feGaussianBlur stdDeviation="25" result="effect1_foregroundBlur_458_49029"/>
</filter>
<filter id="filter3_f_458_49029" x="-378" y="-166" width="1100" height="1100" filterUnits="userSpaceOnUse" color-interpolation-filters="sRGB">
<feFlood flood-opacity="0" result="BackgroundImageFix"/>
<feBlend mode="normal" in="SourceGraphic" in2="BackgroundImageFix" result="shape"/>
<feGaussianBlur stdDeviation="150" result="effect1_foregroundBlur_458_49029"/>
</filter>
<filter id="filter4_f_458_49029" x="337" y="-149" width="1056" height="1056" filterUnits="userSpaceOnUse" color-interpolation-filters="sRGB">
<feFlood flood-opacity="0" result="BackgroundImageFix"/>
<feBlend mode="normal" in="SourceGraphic" in2="BackgroundImageFix" result="shape"/>
<feGaussianBlur stdDeviation="150" result="effect1_foregroundBlur_458_49029"/>
</filter>
<filter id="filter5_f_458_49029" x="965" y="-465" width="926" height="926" filterUnits="userSpaceOnUse" color-interpolation-filters="sRGB">
<feFlood flood-opacity="0" result="BackgroundImageFix"/>
<feBlend mode="normal" in="SourceGraphic" in2="BackgroundImageFix" result="shape"/>
<feGaussianBlur stdDeviation="150" result="effect1_foregroundBlur_458_49029"/>
</filter>
<filter id="filter6_f_458_49029" x="1403" y="19" width="925" height="925" filterUnits="userSpaceOnUse" color-interpolation-filters="sRGB">
<feFlood flood-opacity="0" result="BackgroundImageFix"/>
<feBlend mode="normal" in="SourceGraphic" in2="BackgroundImageFix" result="shape"/>
<feGaussianBlur stdDeviation="150" result="effect1_foregroundBlur_458_49029"/>
</filter>
<linearGradient id="paint0_linear_458_49029" x1="600" y1="1200" x2="600" y2="0" gradientUnits="userSpaceOnUse">
<stop stop-color="#63B3FB"/>
<stop offset="1" stop-color="#FBF3F3"/>
</linearGradient>
<linearGradient id="paint1_linear_458_49029" x1="368.5" y1="786" x2="1674" y2="299.5" gradientUnits="userSpaceOnUse">
<stop stop-color="white"/>
<stop offset="1" stop-color="#78FDED"/>
</linearGradient>
<linearGradient id="paint2_linear_458_49029" x1="1002" y1="695.5" x2="983" y2="428.5" gradientUnits="userSpaceOnUse">
<stop stop-color="#9FC2FF"/>
<stop offset="0.528854" stop-color="#96F2E1"/>
<stop offset="1" stop-color="#FBEEEE"/>
</linearGradient>
<clipPath id="clip0_458_49029">
<rect width="2560" height="424" fill="white"/>
</clipPath>
</defs>
</svg>
