<svg width="120" height="120" viewBox="0 0 120 120" fill="none" xmlns="http://www.w3.org/2000/svg">
<circle cx="60" cy="60" r="60" fill="#28272D"/>
<path fill-rule="evenodd" clip-rule="evenodd" d="M63.6907 79.8836C62.2673 83.0029 57.8359 83.0029 56.4126 79.8836L51.9583 70.1221C51.5585 69.2459 50.856 68.5434 49.9798 68.1436L40.2184 63.6894C37.0991 62.266 37.0991 57.8346 40.2184 56.4113L49.9798 51.957C50.856 51.5572 51.5585 50.8547 51.9583 49.9785L56.4126 40.2171C57.8359 37.0978 62.2673 37.0978 63.6907 40.2171L68.1449 49.9785C68.5447 50.8547 69.2473 51.5572 70.1234 51.957L79.8849 56.4113C83.0042 57.8346 83.0042 62.266 79.8849 63.6894L70.1234 68.1436C69.2473 68.5434 68.5447 69.2459 68.1449 70.1221L63.6907 79.8836ZM61.022 76.4625C60.6425 77.2943 59.4608 77.2943 59.0812 76.4624L54.4081 66.2214C54.3015 65.9878 54.1142 65.8004 53.8805 65.6938L43.6395 61.0207C42.8077 60.6412 42.8077 59.4595 43.6395 59.0799L53.8805 54.4068C54.1142 54.3002 54.3015 54.1129 54.4081 53.8792L59.0812 43.6382C59.4608 42.8064 60.6425 42.8064 61.022 43.6382L65.6951 53.8792C65.8017 54.1129 65.9891 54.3002 66.2227 54.4068L76.4638 59.0799C77.2956 59.4595 77.2956 60.6412 76.4638 61.0207L66.2227 65.6938C65.9891 65.8004 65.8017 65.9878 65.6951 66.2214L61.022 76.4625Z" fill="#EAE9EC"/>
</svg>
